<svg width="326" height="353" viewBox="0 0 326 353" fill="none" xmlns="http://www.w3.org/2000/svg">
<g filter="url(#filter0_dd_419_2794)">
<path d="M135.496 114.118C137.911 106.36 139.118 102.481 141.433 99.5604C143.478 96.9807 146.128 94.9456 149.148 93.6356C152.567 92.1524 156.626 91.9866 164.744 91.6549L222.92 89.2777C227.147 89.1049 229.261 89.0186 231.297 89.3572C233.103 89.6576 234.859 90.2046 236.516 90.9828C238.385 91.8601 240.075 93.1312 243.457 95.6736L289.939 130.621C296.431 135.502 299.677 137.942 301.649 141.103C303.391 143.896 304.417 147.074 304.636 150.358C304.884 154.076 303.677 157.953 301.263 165.709L292.527 193.772C277.363 242.49 234.634 277.024 184.527 282.215C181.408 282.538 179.849 282.7 177.431 282.359C175.731 282.12 172.807 281.21 171.272 280.443C169.088 279.351 167.895 278.332 165.51 276.296C127.188 243.58 111.601 190.882 126.77 142.151L135.496 114.118Z" fill="white"/>
<path d="M135.496 114.118C137.911 106.36 139.118 102.481 141.433 99.5604C143.478 96.9807 146.128 94.9456 149.148 93.6356C152.567 92.1524 156.626 91.9866 164.744 91.6549L222.92 89.2777C227.147 89.1049 229.261 89.0186 231.297 89.3572C233.103 89.6576 234.859 90.2046 236.516 90.9828C238.385 91.8601 240.075 93.1312 243.457 95.6736L289.939 130.621C296.431 135.502 299.677 137.942 301.649 141.103C303.391 143.896 304.417 147.074 304.636 150.358C304.884 154.076 303.677 157.953 301.263 165.709L292.527 193.772C277.363 242.49 234.634 277.024 184.527 282.215C181.408 282.538 179.849 282.7 177.431 282.359C175.731 282.12 172.807 281.21 171.272 280.443C169.088 279.351 167.895 278.332 165.51 276.296C127.188 243.58 111.601 190.882 126.77 142.151L135.496 114.118Z" fill="url(#paint0_radial_419_2794)"/>
<path d="M135.496 114.118C137.911 106.36 139.118 102.481 141.433 99.5604C143.478 96.9807 146.128 94.9456 149.148 93.6356C152.567 92.1524 156.626 91.9866 164.744 91.6549L222.92 89.2777C227.147 89.1049 229.261 89.0186 231.297 89.3572C233.103 89.6576 234.859 90.2046 236.516 90.9828C238.385 91.8601 240.075 93.1312 243.457 95.6736L289.939 130.621C296.431 135.502 299.677 137.942 301.649 141.103C303.391 143.896 304.417 147.074 304.636 150.358C304.884 154.076 303.677 157.953 301.263 165.709L292.527 193.772C277.363 242.49 234.634 277.024 184.527 282.215C181.408 282.538 179.849 282.7 177.431 282.359C175.731 282.12 172.807 281.21 171.272 280.443C169.088 279.351 167.895 278.332 165.51 276.296C127.188 243.58 111.601 190.882 126.77 142.151L135.496 114.118Z" fill="url(#paint1_radial_419_2794)"/>
<path d="M135.496 114.118C137.911 106.36 139.118 102.481 141.433 99.5604C143.478 96.9807 146.128 94.9456 149.148 93.6356C152.567 92.1524 156.626 91.9866 164.744 91.6549L222.92 89.2777C227.147 89.1049 229.261 89.0186 231.297 89.3572C233.103 89.6576 234.859 90.2046 236.516 90.9828C238.385 91.8601 240.075 93.1312 243.457 95.6736L289.939 130.621C296.431 135.502 299.677 137.942 301.649 141.103C303.391 143.896 304.417 147.074 304.636 150.358C304.884 154.076 303.677 157.953 301.263 165.709L292.527 193.772C277.363 242.49 234.634 277.024 184.527 282.215C181.408 282.538 179.849 282.7 177.431 282.359C175.731 282.12 172.807 281.21 171.272 280.443C169.088 279.351 167.895 278.332 165.51 276.296C127.188 243.58 111.601 190.882 126.77 142.151L135.496 114.118Z" fill="url(#paint2_radial_419_2794)"/>
<path d="M135.496 114.118C137.911 106.36 139.118 102.481 141.433 99.5604C143.478 96.9807 146.128 94.9456 149.148 93.6356C152.567 92.1524 156.626 91.9866 164.744 91.6549L222.92 89.2777C227.147 89.1049 229.261 89.0186 231.297 89.3572C233.103 89.6576 234.859 90.2046 236.516 90.9828C238.385 91.8601 240.075 93.1312 243.457 95.6736L289.939 130.621C296.431 135.502 299.677 137.942 301.649 141.103C303.391 143.896 304.417 147.074 304.636 150.358C304.884 154.076 303.677 157.953 301.263 165.709L292.527 193.772C277.363 242.49 234.634 277.024 184.527 282.215C181.408 282.538 179.849 282.7 177.431 282.359C175.731 282.12 172.807 281.21 171.272 280.443C169.088 279.351 167.895 278.332 165.51 276.296C127.188 243.58 111.601 190.882 126.77 142.151L135.496 114.118Z" stroke="url(#paint3_linear_419_2794)"/>
</g>
<foreignObject x="-10" y="-24.9355" width="300" height="377.102"><div xmlns="http://www.w3.org/1999/xhtml" style="backdrop-filter:blur(13px);clip-path:url(#bgblur_0_419_2794_clip_path);height:100%;width:100%"></div></foreignObject><g filter="url(#filter1_di_419_2794)" data-figma-bg-blur-radius="26">
<path d="M17 100.865C17 73.8045 17 60.2744 24.2255 49.9472C31.4511 39.62 44.1619 34.9832 69.5834 25.7094L118.115 8.00506C128.973 4.04423 134.402 2.06381 140.059 2.06469C145.716 2.06556 151.144 4.04766 162 8.01185L210.44 25.6995C235.851 34.9782 248.556 39.6176 255.778 49.9431C263 60.2685 263 73.7945 263 100.846V118.497C263 192.516 217.651 258.588 149.408 285.582C145.054 287.305 142.877 288.166 140.018 288.166C137.159 288.167 134.982 287.305 130.627 285.583C62.3641 258.589 17 192.501 17 118.463V100.865Z" fill="#635BFF" fill-opacity="0.15" shape-rendering="crispEdges"/>
<path d="M17 100.865C17 73.8045 17 60.2744 24.2255 49.9472C31.4511 39.62 44.1619 34.9832 69.5834 25.7094L118.115 8.00506C128.973 4.04423 134.402 2.06381 140.059 2.06469C145.716 2.06556 151.144 4.04766 162 8.01185L210.44 25.6995C235.851 34.9782 248.556 39.6176 255.778 49.9431C263 60.2685 263 73.7945 263 100.846V118.497C263 192.516 217.651 258.588 149.408 285.582C145.054 287.305 142.877 288.166 140.018 288.166C137.159 288.167 134.982 287.305 130.627 285.583C62.3641 258.589 17 192.501 17 118.463V100.865Z" fill="url(#paint4_radial_419_2794)" fill-opacity="0.6" shape-rendering="crispEdges"/>
<path d="M17 100.865C17 73.8045 17 60.2744 24.2255 49.9472C31.4511 39.62 44.1619 34.9832 69.5834 25.7094L118.115 8.00506C128.973 4.04423 134.402 2.06381 140.059 2.06469C145.716 2.06556 151.144 4.04766 162 8.01185L210.44 25.6995C235.851 34.9782 248.556 39.6176 255.778 49.9431C263 60.2685 263 73.7945 263 100.846V118.497C263 192.516 217.651 258.588 149.408 285.582C145.054 287.305 142.877 288.166 140.018 288.166C137.159 288.167 134.982 287.305 130.627 285.583C62.3641 258.589 17 192.501 17 118.463V100.865Z" stroke="white" stroke-opacity="0.2" stroke-width="2" stroke-linejoin="round" shape-rendering="crispEdges"/>
</g>
<path d="M94 133.065L129.769 171L187 115" stroke="white" stroke-width="26" stroke-linecap="round" stroke-linejoin="round"/>
<g filter="url(#filter2_d_419_2794)">
<path d="M252 18L253.67 28.0246C255.918 41.5125 266.488 52.0819 279.975 54.3295L290 56L279.975 57.6705C266.488 59.9181 255.918 70.4875 253.67 83.9754L252 94L250.33 83.9754C248.082 70.4875 237.512 59.9181 224.025 57.6705L214 56L224.025 54.3295C237.512 52.0819 248.082 41.5125 250.33 28.0246L252 18Z" fill="#C7D2FE"/>
</g>
<defs>
<filter id="filter0_dd_419_2794" x="100.533" y="72.6255" width="224.635" height="260.197" filterUnits="userSpaceOnUse" color-interpolation-filters="sRGB">
<feFlood flood-opacity="0" result="BackgroundImageFix"/>
<feColorMatrix in="SourceAlpha" type="matrix" values="0 0 0 0 0 0 0 0 0 0 0 0 0 0 0 0 0 0 127 0" result="hardAlpha"/>
<feMorphology radius="21.0126" operator="erode" in="SourceAlpha" result="effect1_dropShadow_419_2794"/>
<feOffset dy="43.3385"/>
<feGaussianBlur stdDeviation="13.7239"/>
<feComposite in2="hardAlpha" operator="out"/>
<feColorMatrix type="matrix" values="0 0 0 0 0 0 0 0 0 0 0 0 0 0 0 0 0 0 0.15 0"/>
<feBlend mode="normal" in2="BackgroundImageFix" result="effect1_dropShadow_419_2794"/>
<feColorMatrix in="SourceAlpha" type="matrix" values="0 0 0 0 0 0 0 0 0 0 0 0 0 0 0 0 0 0 127 0" result="hardAlpha"/>
<feOffset dy="4"/>
<feGaussianBlur stdDeviation="10"/>
<feComposite in2="hardAlpha" operator="out"/>
<feColorMatrix type="matrix" values="0 0 0 0 0.376471 0 0 0 0 0.788235 0 0 0 0 0.482353 0 0 0 0.1 0"/>
<feBlend mode="normal" in2="effect1_dropShadow_419_2794" result="effect2_dropShadow_419_2794"/>
<feBlend mode="normal" in="SourceGraphic" in2="effect2_dropShadow_419_2794" result="shape"/>
</filter>
<filter id="filter1_di_419_2794" x="-10" y="-24.9355" width="300" height="377.102" filterUnits="userSpaceOnUse" color-interpolation-filters="sRGB">
<feFlood flood-opacity="0" result="BackgroundImageFix"/>
<feColorMatrix in="SourceAlpha" type="matrix" values="0 0 0 0 0 0 0 0 0 0 0 0 0 0 0 0 0 0 127 0" result="hardAlpha"/>
<feMorphology radius="16" operator="erode" in="SourceAlpha" result="effect1_dropShadow_419_2794"/>
<feOffset dy="47"/>
<feGaussianBlur stdDeviation="16"/>
<feComposite in2="hardAlpha" operator="out"/>
<feColorMatrix type="matrix" values="0 0 0 0 0 0 0 0 0 0 0 0 0 0 0 0 0 0 0.15 0"/>
<feBlend mode="normal" in2="BackgroundImageFix" result="effect1_dropShadow_419_2794"/>
<feBlend mode="normal" in="SourceGraphic" in2="effect1_dropShadow_419_2794" result="shape"/>
<feColorMatrix in="SourceAlpha" type="matrix" values="0 0 0 0 0 0 0 0 0 0 0 0 0 0 0 0 0 0 127 0" result="hardAlpha"/>
<feOffset/>
<feGaussianBlur stdDeviation="24.2"/>
<feComposite in2="hardAlpha" operator="arithmetic" k2="-1" k3="1"/>
<feColorMatrix type="matrix" values="0 0 0 0 1 0 0 0 0 1 0 0 0 0 1 0 0 0 0.25 0"/>
<feBlend mode="normal" in2="shape" result="effect2_innerShadow_419_2794"/>
</filter>
<clipPath id="bgblur_0_419_2794_clip_path" transform="translate(10 24.9355)"><path d="M17 100.865C17 73.8045 17 60.2744 24.2255 49.9472C31.4511 39.62 44.1619 34.9832 69.5834 25.7094L118.115 8.00506C128.973 4.04423 134.402 2.06381 140.059 2.06469C145.716 2.06556 151.144 4.04766 162 8.01185L210.44 25.6995C235.851 34.9782 248.556 39.6176 255.778 49.9431C263 60.2685 263 73.7945 263 100.846V118.497C263 192.516 217.651 258.588 149.408 285.582C145.054 287.305 142.877 288.166 140.018 288.166C137.159 288.167 134.982 287.305 130.627 285.583C62.3641 258.589 17 192.501 17 118.463V100.865Z"/>
</clipPath><filter id="filter2_d_419_2794" x="209.1" y="18" width="85.8" height="96.9" filterUnits="userSpaceOnUse" color-interpolation-filters="sRGB">
<feFlood flood-opacity="0" result="BackgroundImageFix"/>
<feColorMatrix in="SourceAlpha" type="matrix" values="0 0 0 0 0 0 0 0 0 0 0 0 0 0 0 0 0 0 127 0" result="hardAlpha"/>
<feMorphology radius="16" operator="erode" in="SourceAlpha" result="effect1_dropShadow_419_2794"/>
<feOffset dy="16"/>
<feGaussianBlur stdDeviation="10.45"/>
<feComposite in2="hardAlpha" operator="out"/>
<feColorMatrix type="matrix" values="0 0 0 0 0 0 0 0 0 0 0 0 0 0 0 0 0 0 0.15 0"/>
<feBlend mode="normal" in2="BackgroundImageFix" result="effect1_dropShadow_419_2794"/>
<feBlend mode="normal" in="SourceGraphic" in2="effect1_dropShadow_419_2794" result="shape"/>
</filter>
<radialGradient id="paint0_radial_419_2794" cx="0" cy="0" r="1" gradientTransform="matrix(36.5515 233.055 -549.873 -103.917 200.841 137.844)" gradientUnits="userSpaceOnUse">
<stop stop-color="#635BFF"/>
<stop offset="1" stop-color="#4F46E5"/>
</radialGradient>
<radialGradient id="paint1_radial_419_2794" cx="0" cy="0" r="1" gradientTransform="matrix(371.5 181 133.207 692.191 91.0002 149.5)" gradientUnits="userSpaceOnUse">
<stop stop-color="#635BFF"/>
<stop offset="1" stop-color="#CFFF20" stop-opacity="0"/>
</radialGradient>
<radialGradient id="paint2_radial_419_2794" cx="0" cy="0" r="1" gradientTransform="matrix(-105 36.5 -47.5853 -32.6279 309 149.5)" gradientUnits="userSpaceOnUse">
<stop stop-color="#C7D2FE"/>
<stop offset="1" stop-color="#C7D2FE" stop-opacity="0"/>
</radialGradient>
<linearGradient id="paint3_linear_419_2794" x1="234.29" y1="88.7991" x2="173.882" y2="282.865" gradientUnits="userSpaceOnUse">
<stop stop-color="#7C75FF"/>
<stop offset="1" stop-color="#4F46E5"/>
</linearGradient>
<radialGradient id="paint4_radial_419_2794" cx="0" cy="0" r="1" gradientTransform="matrix(-214.599 175.832 -139.073 -238.854 294.017 15.9143)" gradientUnits="userSpaceOnUse">
<stop stop-color="white"/>
<stop offset="1" stop-color="white" stop-opacity="0"/>
</radialGradient>
</defs>
</svg>
